<?xml version="1.0" encoding="utf-8"?>
<!-- Generator: Adobe Adobe Illustrator 28.6.0, SVG Export Plug-In . SVG Version: 6.00 Build 0)  -->
<svg version="1.1" id="Layer_1" xmlns="http://www.w3.org/2000/svg" xmlns:xlink="http://www.w3.org/1999/xlink" x="0px" y="0px"
	 viewBox="0 0 500 500" style="enable-background:new 0 0 500 500;" xml:space="preserve">
<style type="text/css">
	.st0{fill:#2A3863;}
	.st1{fill:#CEFAE9;}
</style>
<g>
	<path d="M185.4,411.34c-13.1,3.24-24.7,10.95-38.46,9.25c-0.18-0.53-0.36-1.07-0.54-1.6c8.03-3.88,16.07-7.76,24.1-11.65
		c-0.29-0.67-0.57-1.33-0.86-2c-5.12,1.12-10.22,2.34-15.37,3.31c-2.99,0.57-6.1,1.17-9.07,0.93c-1.77-0.15-4.2-1.63-4.8-3.08
		c-0.41-1.02,1.41-3.66,2.89-4.42c3.7-1.92,7.77-3.19,11.69-4.72c2.29-0.9,4.57-1.81,7.04-2.78c-0.66-0.7-0.86-1.14-1.15-1.2
		c-3.34-0.68-8.32-0.45-7.91-4.67c0.22-2.23,4.5-5.13,7.47-5.93c18.83-5.07,34.99-15.05,51.63-24.17c-0.16-0.46-0.32-0.92-0.48-1.38
		c-3.85,1.33-7.78,2.47-11.52,4.02c-11.52,4.77-22.9,9.87-34.5,14.47c-3.09,1.23-6.79,1.65-10.18,1.53
		c-12.07-0.44-23.72,0.48-34.42,6.59c-1.51,0.86-3.9,1.12-5.62,0.7c-7.92-1.92-14.75,0.14-21.3,4.3c-6.15,3.9-12.16,2.74-14.76-2.45
		c-5.31,0.28-10.58,0.56-15.85,0.84c-0.34-0.8-0.68-1.6-1.01-2.4c3.41-2.23,6.62-4.83,10.27-6.59c6.54-3.16,13.46-5.6,19.99-8.78
		c3.5-1.7,6.32-4.66,9.78-6.46c5.89-3.07,12.05-5.66,18.08-8.49c5.86-2.75,11.69-5.54,18.29-8.67c-8.16-2.86-14.48-4.15-21.29,1.68
		c-4.98,4.27-11.69,7.59-18.2,9.14c-8.98,2.14-10.45,0.39-12.14-9.11c-8.37,5.27-17.45,4.63-26.48,3.35
		c-5.91-0.84-13.35-0.67-17.15-4.01c-4.64-4.08-8.69-6.18-15.12-4.75c0.08-0.52,0.15-1.04,0.22-1.56c1.23-0.68,2.5-1.32,3.69-2.06
		c2.2-1.36,4.3-2.73,2.48-5.76c-1.61-2.67-3.64-4.94-6.91-2.78c-5.56,3.66-10-0.75-14.91-1.49c-0.64-0.1-1.03-2.13-1.38-3.3
		c-0.25-0.86-0.02-1.87-0.37-2.67c-1.3-3-2.76-5.95-4.15-8.91c0.5-0.24,1.01-0.48,1.51-0.73c-0.25-0.27-0.44-0.69-0.75-0.8
		c-7.89-2.91-8.98-6.38-3.1-12.52c9.02-9.4,20.61-14.74,33.31-18.27c5.24-1.46,10.26-3.65,15.38-5.51
		c-0.06-0.68-0.13-1.37-0.19-2.05c-1.61-0.69-3.15-1.77-4.83-2.02c-7.07-1.03-12.8-3.76-16.85-9.72c-0.92-1.35-3.79-1.6-5.83-2.14
		c-1.87-0.5-3.83-0.71-5.75-1.05c0.89-1.52,1.76-3.06,2.69-4.57c0.46-0.74,1.03-1.41,1.55-2.11c-0.27-0.59-0.54-1.19-0.81-1.78
		c-4.94,1.58-9.88,3.16-14.82,4.74c18.97-12.72,40.61-21.83,56.04-38.39c-9.83,4.52-20.18,9.27-31.53,14.49
		c2.09-7.76,3.02-14.16,11.51-17.17c4.49-1.6,9.82-4.63,10.65-11.24c-3.71-1.05-7.15-2.03-12.33-3.49c4.3-2.82,7.24-4.95,10.37-6.77
		c10.37-6.03,20.65-12.23,31.3-17.8c6.92-3.62,14.47-6.14,21.63-9.38c4.8-2.17,9.36-4.82,14.13-7.07c3.11-1.47,6.57-2.29,9.54-3.95
		c3.84-2.14,7.18-5.09,11.01-7.24c12.81-7.19,25.82-14.07,38.61-21.31c4.47-2.53,8.37-5.95,12.79-8.58
		c8.31-4.95,16.65-9.88,25.24-14.36c14.03-7.31,28.24-14.29,42.45-21.28c2.13-1.05,4.63-1.4,7.24-2.15
		c-0.63,6.05-11.51,4.64-9.25,13.09c3.53-1.84,5.92-3.5,8.6-4.34c2.09-0.66,4.53-0.31,6.82-0.41c-1.13,1.88-1.8,4.35-3.47,5.53
		c-3.68,2.61-7.86,4.57-11.83,6.79c5.08,8.02,8.22,8.5,18.9,4.18c9.64-3.9,19.21-8.24,29.25-10.87
		c16.2-4.24,31.33-10.64,46.32-17.63c4.25-1.98,9.02-3.12,13.68-4.07c1.84-0.38,4.25,0.45,6.03,1.37c4.53,2.36,4.46,6.07,0.14,8.72
		c-1.36,0.83-2.54,1.92-4.29,3.27c1.35,0.49,1.97,0.95,2.29,0.8c5.27-2.36,8.18-0.93,9.69,4.55c0.34,1.24,4.03,2.9,5.42,2.41
		c7.42-2.6,14.04-1.32,19.13,3.91c5.57,5.72,6.09,13.05,4.12,20.45c-1.57,5.92-4.48,9.16-11.96,10.45
		c-11.24,1.95-21.95,6.67-32.87,10.26c-0.42,0.14-0.65,0.83-1.88,2.52c13.66-2.93,26.12-5.61,39.59-8.5
		c-3.97,10.95-13.25,14.31-21.72,18.46c1.55,4.71,4.51,3.93,7.52,2.58c8.05-3.61,15.81-7.99,24.16-10.78
		c9.12-3.04,18.9-4.26,28.17-6.96c12.79-3.74,25.38-8.12,38.05-12.23c0.37-0.12,0.73-0.38,1.09-0.38
		c5.87-0.02,11.75-0.02,17.63-0.02c0.12,0.48,0.24,0.97,0.36,1.45c-5.35,2.62-10.66,5.32-16.06,7.85
		c-10.22,4.81-20.48,9.53-30.74,14.27c-2.25,1.04-4.52,2.03-6.79,3.02c-10.83,4.76-12.2,7.05-10.8,18.94
		c1.88-0.57,3.63-1.1,5.39-1.63c1.47-0.44,3.02-1.4,4.39-1.21c13.07,1.81,23.83-4.53,35.15-8.85c5.95-2.27,11.73-4.93,17.73-7.05
		c1.7-0.6,3.9,0.09,5.88,0.19c0.1,0.66,0.2,1.32,0.3,1.98c-2.82,1.29-5.63,2.6-8.46,3.86c-22.59,10.07-45.22,20.08-67.76,30.25
		c-4.99,2.25-7.21,6.73-7.52,11.67c-0.41,6.6-0.1,13.24-0.1,21.44c4.24-1.46,8.53-2.55,12.45-4.37c10.61-4.95,12.3-3.98,11.72,7.55
		c-0.19,3.89-0.48,7.8-1.06,11.65c-1.73,11.34-10.72,17.41-19.32,23.7c-6.88,5.04-13.79,10.03-20.69,15.05
		c0.14,0.58,0.29,1.16,0.43,1.75c5.32-0.83,10.65-1.66,15.97-2.5c0.15,0.44,0.29,0.88,0.44,1.33
		c-20.31,10.34-42.04,17.45-64.46,24.43c0.93,1.29,1.6,2.22,2.5,3.49c-2.83-0.4-5.56-0.78-9.24-1.3c0.97,1.6,1.5,2.46,2.49,4.08
		c-6.76-3.27-9.98,1.69-14.53,3.89c-4.71,2.27-10.36,2.74-15.55,4.14c-2.21,0.59-4.31,1.53-6.46,2.31c1.59,1.61,3.18,3.21,5.16,5.23
		c0.04-0.12-0.26,0.79-0.76,2.28c2.08-0.26,3.58-0.4,5.06-0.65c5.33-0.9,10.65-1.83,15.97-2.78c6.38-1.13,11.73-3.24,16.68-8.05
		c3.73-3.62,10.42-4.65,15.94-6.38c8.07-2.53,16.27-4.67,25.84-7.38c-1.15,2.83-1.72,4.46-2.48,6.01c-0.49,0.99-1.93,1.98-1.79,2.78
		c1.68,9.17-6.86,9.34-11.87,12.76c-3.02,2.06-5.76,4.7-7.99,7.53c-2.29,2.9-0.45,4.9,2.56,6.54c3.06,1.66,5.77,3.9,8.63,5.89
		c-2.99,2.14-5.72,4.82-9.03,6.33c-11.5,5.24-23.21,10.07-34.84,15.06c-0.53,0.23-1.23,0.85-1.54,0.7c-6.42-3.06-11.21,2-16.72,3.2
		c-5.95,1.29-11.62,3.75-17.4,5.7c-0.18,0.06-0.35,0.2-0.53,0.23c-15.8,2.09-28.02,12.43-42.81,16.85
		c-5.49,1.64-10.97,3.32-16.46,4.96c-0.92,0.28-2.1,0.24-2.77,0.79c-10.11,8.41-23.06,10.91-35.13,15.08
		C199.58,408.81,192.6,409.69,185.4,411.34z M252.53,323.19c6.45,0,12.9-0.19,19.33,0.06c4.41,0.17,5.49-1.65,4.8-5.39
		c-1.97-10.78-3.77-21.58-5.81-32.35c-5.07-26.65-10.33-53.27-15.32-79.94c-2.74-14.64-5.23-29.32-7.52-44.03
		c-0.66-4.24-2.7-5.74-6.92-5.68c-7.81,0.11-15.63,0.02-23.44,0.02c-9.28,0-9.29-0.01-11.34,8.3c-0.53,2.17-1.04,4.35-1.43,6.55
		c-2.68,15.04-5.22,30.1-8.02,45.12c-2.65,14.23-5.62,28.4-8.37,42.61c-3.84,19.9-7.51,39.83-11.47,59.7c-0.7,3.52,0.24,4.98,3.86,5
		c4.1,0.02,8.2,0.02,12.31,0.02c12.2,0.01,12.19,0.01,14.75-11.23c1.07-4.73,2.78-8.3,9.25-7.37c4.59,0.65,9.36,0.07,14.04,0.13
		c13.93,0.18,13.3-1.96,14.5,12.23C246.03,320.34,246.91,323.32,252.53,323.19z M360.34,160.41c4.43-2.13,8.87-4.25,13.3-6.38
		c-0.32-0.67-0.64-1.34-0.96-2.01c-6.35,2.07-12.71,4.14-19.06,6.21c0.02,0.47,0.03,0.95,0.05,1.42
		C355.62,160,357.56,160.34,360.34,160.41z"/>
	<path class="st0" d="M446.89,261.89c11.01-3.2,21.74-6.11,32.48-9.01c0.33,0.88,0.66,1.76,0.98,2.64c-2.36,0.9-4.65,2.05-7.1,2.65
		c-6.89,1.71-13.8,3.33-20.77,4.67C450.66,263.19,448.59,262.43,446.89,261.89z"/>
	<path class="st0" d="M434.35,156.88c-0.68-0.54-0.75-1.11-0.81-1.69c0.51-0.01,1.02-0.01,1.52-0.02
		C435.03,155.73,435,156.29,434.35,156.88z"/>
	<path class="st1" d="M359.92,160.55c-2.36-0.2-4.3-0.54-6.23-0.88c-0.02-0.47-0.03-0.95-0.05-1.42c6.35-2.07,12.71-4.14,19.06-6.21
		c0.32,0.67,0.64,1.34,0.96,2.01C369.21,156.16,364.78,158.29,359.92,160.55z"/>
	<path d="M220.93,239.02c1.93-10.57,3.8-20.65,5.67-30.74c0.52,0.03,1.03,0.05,1.55,0.07c3.5,22.99,7.01,45.99,10.62,69.69
		c-8.07,0-15.64,0-24.03,0C216.81,265.04,218.84,252.27,220.93,239.02z"/>
</g>
</svg>
